<mxfile host="Electron" modified="2024-03-12T00:32:07.017Z" agent="Mozilla/5.0 (Windows NT 10.0; Win64; x64) AppleWebKit/537.36 (KHTML, like Gecko) draw.io/23.0.2 Chrome/120.0.6099.109 Electron/28.1.0 Safari/537.36" etag="5KfYuXsLkFR-QyzDXkqh" version="23.0.2" type="device">
  <diagram name="entry" id="-fmLWesuxfHuVlHm4Eb1">
    <mxGraphModel dx="409" dy="440" grid="1" gridSize="10" guides="1" tooltips="1" connect="1" arrows="1" fold="1" page="1" pageScale="1" pageWidth="850" pageHeight="1100" math="0" shadow="0">
      <root>
        <mxCell id="0" />
        <mxCell id="1" parent="0" />
        <mxCell id="7m3qXim2h5Vj4lzrUXl9-3" value="entry_points={&#xa;    &#39;console_scripts&#39;: [&#xa;        &#39;bare = python_basics.bare:main&#39;,&#xa;    ],&#xa;}," style="text;whiteSpace=wrap;fontFamily=Lucida Console;" vertex="1" parent="1">
          <mxGeometry x="340" y="310" width="360" height="100" as="geometry" />
        </mxCell>
        <mxCell id="7m3qXim2h5Vj4lzrUXl9-4" value="" style="endArrow=none;html=1;rounded=0;fillColor=#f8cecc;strokeColor=#b85450;strokeWidth=2;" edge="1" parent="1">
          <mxGeometry width="50" height="50" relative="1" as="geometry">
            <mxPoint x="405" y="362" as="sourcePoint" />
            <mxPoint x="435" y="362" as="targetPoint" />
          </mxGeometry>
        </mxCell>
        <mxCell id="7m3qXim2h5Vj4lzrUXl9-6" value="node entry point" style="text;html=1;strokeColor=none;fillColor=none;align=center;verticalAlign=middle;whiteSpace=wrap;rounded=0;" vertex="1" parent="1">
          <mxGeometry x="380" y="420" width="75" height="30" as="geometry" />
        </mxCell>
        <mxCell id="7m3qXim2h5Vj4lzrUXl9-7" value="" style="endArrow=none;html=1;rounded=0;fillColor=#dae8fc;strokeColor=#6c8ebf;strokeWidth=2;" edge="1" parent="1">
          <mxGeometry width="50" height="50" relative="1" as="geometry">
            <mxPoint x="458" y="362" as="sourcePoint" />
            <mxPoint x="551" y="362" as="targetPoint" />
          </mxGeometry>
        </mxCell>
        <mxCell id="7m3qXim2h5Vj4lzrUXl9-8" value="" style="endArrow=classic;html=1;rounded=0;fillColor=#dae8fc;strokeColor=#6c8ebf;" edge="1" parent="1">
          <mxGeometry width="50" height="50" relative="1" as="geometry">
            <mxPoint x="504" y="416" as="sourcePoint" />
            <mxPoint x="504" y="363" as="targetPoint" />
          </mxGeometry>
        </mxCell>
        <mxCell id="7m3qXim2h5Vj4lzrUXl9-9" value="package name" style="text;html=1;strokeColor=none;fillColor=none;align=center;verticalAlign=middle;whiteSpace=wrap;rounded=0;" vertex="1" parent="1">
          <mxGeometry x="470" y="420" width="75" height="30" as="geometry" />
        </mxCell>
        <mxCell id="7m3qXim2h5Vj4lzrUXl9-10" value="" style="endArrow=none;html=1;rounded=0;fillColor=#ffe6cc;strokeColor=#d79b00;strokeWidth=2;" edge="1" parent="1">
          <mxGeometry width="50" height="50" relative="1" as="geometry">
            <mxPoint x="559" y="362" as="sourcePoint" />
            <mxPoint x="589" y="362" as="targetPoint" />
          </mxGeometry>
        </mxCell>
        <mxCell id="7m3qXim2h5Vj4lzrUXl9-11" value="python module&lt;br&gt;(file name)" style="text;html=1;strokeColor=none;fillColor=none;align=center;verticalAlign=middle;whiteSpace=wrap;rounded=0;" vertex="1" parent="1">
          <mxGeometry x="534" y="426" width="80" height="30" as="geometry" />
        </mxCell>
        <mxCell id="7m3qXim2h5Vj4lzrUXl9-12" value="" style="endArrow=classic;html=1;rounded=0;fillColor=#ffe6cc;strokeColor=#d79b00;" edge="1" parent="1">
          <mxGeometry width="50" height="50" relative="1" as="geometry">
            <mxPoint x="574" y="417" as="sourcePoint" />
            <mxPoint x="574" y="364" as="targetPoint" />
          </mxGeometry>
        </mxCell>
        <mxCell id="7m3qXim2h5Vj4lzrUXl9-15" value="" style="endArrow=classic;html=1;rounded=0;" edge="1" parent="1">
          <mxGeometry width="50" height="50" relative="1" as="geometry">
            <mxPoint x="420" y="414" as="sourcePoint" />
            <mxPoint x="420" y="364" as="targetPoint" />
          </mxGeometry>
        </mxCell>
        <mxCell id="7m3qXim2h5Vj4lzrUXl9-16" value="" style="endArrow=classic;html=1;rounded=0;fillColor=#e1d5e7;strokeColor=#9673a6;" edge="1" parent="1">
          <mxGeometry width="50" height="50" relative="1" as="geometry">
            <mxPoint x="685" y="419" as="sourcePoint" />
            <mxPoint x="617" y="364" as="targetPoint" />
          </mxGeometry>
        </mxCell>
        <mxCell id="7m3qXim2h5Vj4lzrUXl9-17" value="entry function&lt;br&gt;(within the module)" style="text;html=1;strokeColor=none;fillColor=none;align=center;verticalAlign=middle;whiteSpace=wrap;rounded=0;" vertex="1" parent="1">
          <mxGeometry x="630" y="420" width="110" height="30" as="geometry" />
        </mxCell>
        <mxCell id="7m3qXim2h5Vj4lzrUXl9-18" value="" style="endArrow=none;html=1;rounded=0;fillColor=#e1d5e7;strokeColor=#9673a6;strokeWidth=2;" edge="1" parent="1">
          <mxGeometry width="50" height="50" relative="1" as="geometry">
            <mxPoint x="595" y="362" as="sourcePoint" />
            <mxPoint x="625" y="362" as="targetPoint" />
          </mxGeometry>
        </mxCell>
      </root>
    </mxGraphModel>
  </diagram>
</mxfile>
